<mxfile host="Electron" modified="2024-05-19T06:07:01.731Z" agent="Mozilla/5.0 (Windows NT 10.0; Win64; x64) AppleWebKit/537.36 (KHTML, like Gecko) draw.io/24.2.5 Chrome/120.0.6099.109 Electron/28.1.0 Safari/537.36" etag="OVUpVyfyf4D6kj34OHF_" version="24.2.5" type="device">
  <diagram name="Page-1" id="7hDecAobzlnW18HfkVtb">
    <mxGraphModel dx="1098" dy="820" grid="1" gridSize="10" guides="1" tooltips="1" connect="1" arrows="1" fold="1" page="1" pageScale="1" pageWidth="850" pageHeight="1100" math="0" shadow="0">
      <root>
        <mxCell id="0" />
        <mxCell id="1" parent="0" />
        <mxCell id="XcGEKALizC69AsWdX4OZ-1" value="" style="rounded=0;whiteSpace=wrap;html=1;" vertex="1" parent="1">
          <mxGeometry x="200" y="120" width="550" height="640" as="geometry" />
        </mxCell>
        <mxCell id="XcGEKALizC69AsWdX4OZ-2" value="&lt;font style=&quot;font-size: 14px;&quot;&gt;FastDelivery&lt;/font&gt;" style="text;html=1;align=center;verticalAlign=middle;whiteSpace=wrap;rounded=0;" vertex="1" parent="1">
          <mxGeometry x="415" y="120" width="60" height="30" as="geometry" />
        </mxCell>
        <mxCell id="XcGEKALizC69AsWdX4OZ-3" value="&lt;font style=&quot;font-size: 20px;&quot;&gt;Character&lt;/font&gt;" style="shape=umlActor;verticalLabelPosition=bottom;verticalAlign=top;html=1;outlineConnect=0;" vertex="1" parent="1">
          <mxGeometry x="40" y="385" width="50" height="110" as="geometry" />
        </mxCell>
        <mxCell id="XcGEKALizC69AsWdX4OZ-4" value="&lt;font style=&quot;font-size: 20px;&quot;&gt;MoveUp&lt;/font&gt;" style="ellipse;whiteSpace=wrap;html=1;" vertex="1" parent="1">
          <mxGeometry x="370" y="170" width="140" height="70" as="geometry" />
        </mxCell>
        <mxCell id="XcGEKALizC69AsWdX4OZ-5" value="&lt;font style=&quot;font-size: 20px;&quot;&gt;MoveDown&lt;/font&gt;" style="ellipse;whiteSpace=wrap;html=1;" vertex="1" parent="1">
          <mxGeometry x="450" y="280" width="140" height="70" as="geometry" />
        </mxCell>
        <mxCell id="XcGEKALizC69AsWdX4OZ-6" value="&lt;span style=&quot;font-size: 20px;&quot;&gt;MoveLeft&lt;/span&gt;" style="ellipse;whiteSpace=wrap;html=1;" vertex="1" parent="1">
          <mxGeometry x="495" y="410" width="140" height="70" as="geometry" />
        </mxCell>
        <mxCell id="XcGEKALizC69AsWdX4OZ-7" value="&lt;span style=&quot;font-size: 20px;&quot;&gt;MoveRight&lt;/span&gt;" style="ellipse;whiteSpace=wrap;html=1;" vertex="1" parent="1">
          <mxGeometry x="450" y="550" width="140" height="70" as="geometry" />
        </mxCell>
        <mxCell id="XcGEKALizC69AsWdX4OZ-8" value="&lt;font style=&quot;font-size: 20px;&quot;&gt;Take Items&lt;/font&gt;" style="ellipse;whiteSpace=wrap;html=1;" vertex="1" parent="1">
          <mxGeometry x="277.5" y="660" width="155" height="70" as="geometry" />
        </mxCell>
        <mxCell id="XcGEKALizC69AsWdX4OZ-9" value="" style="endArrow=none;html=1;rounded=0;" edge="1" parent="1" source="XcGEKALizC69AsWdX4OZ-3" target="XcGEKALizC69AsWdX4OZ-4">
          <mxGeometry width="50" height="50" relative="1" as="geometry">
            <mxPoint x="280" y="430" as="sourcePoint" />
            <mxPoint x="330" y="380" as="targetPoint" />
          </mxGeometry>
        </mxCell>
        <mxCell id="XcGEKALizC69AsWdX4OZ-10" value="" style="endArrow=none;html=1;rounded=0;" edge="1" parent="1" source="XcGEKALizC69AsWdX4OZ-3" target="XcGEKALizC69AsWdX4OZ-5">
          <mxGeometry width="50" height="50" relative="1" as="geometry">
            <mxPoint x="280" y="430" as="sourcePoint" />
            <mxPoint x="330" y="380" as="targetPoint" />
          </mxGeometry>
        </mxCell>
        <mxCell id="XcGEKALizC69AsWdX4OZ-11" value="" style="endArrow=none;html=1;rounded=0;" edge="1" parent="1" source="XcGEKALizC69AsWdX4OZ-3" target="XcGEKALizC69AsWdX4OZ-6">
          <mxGeometry width="50" height="50" relative="1" as="geometry">
            <mxPoint x="280" y="430" as="sourcePoint" />
            <mxPoint x="330" y="380" as="targetPoint" />
          </mxGeometry>
        </mxCell>
        <mxCell id="XcGEKALizC69AsWdX4OZ-12" value="" style="endArrow=none;html=1;rounded=0;" edge="1" parent="1" source="XcGEKALizC69AsWdX4OZ-3" target="XcGEKALizC69AsWdX4OZ-7">
          <mxGeometry width="50" height="50" relative="1" as="geometry">
            <mxPoint x="280" y="510" as="sourcePoint" />
            <mxPoint x="330" y="460" as="targetPoint" />
          </mxGeometry>
        </mxCell>
        <mxCell id="XcGEKALizC69AsWdX4OZ-13" value="" style="endArrow=none;html=1;rounded=0;" edge="1" parent="1" source="XcGEKALizC69AsWdX4OZ-8" target="XcGEKALizC69AsWdX4OZ-3">
          <mxGeometry width="50" height="50" relative="1" as="geometry">
            <mxPoint x="280" y="510" as="sourcePoint" />
            <mxPoint x="330" y="460" as="targetPoint" />
          </mxGeometry>
        </mxCell>
        <mxCell id="XcGEKALizC69AsWdX4OZ-14" value="&lt;font style=&quot;font-size: 20px;&quot;&gt;Put Items&lt;/font&gt;" style="ellipse;whiteSpace=wrap;html=1;" vertex="1" parent="1">
          <mxGeometry x="570" y="660" width="140" height="70" as="geometry" />
        </mxCell>
        <mxCell id="XcGEKALizC69AsWdX4OZ-15" value="&amp;lt;&amp;lt; include &amp;gt;&amp;gt;" style="endArrow=open;endSize=12;dashed=1;html=1;rounded=0;" edge="1" parent="1" source="XcGEKALizC69AsWdX4OZ-8" target="XcGEKALizC69AsWdX4OZ-14">
          <mxGeometry width="160" relative="1" as="geometry">
            <mxPoint x="230" y="480" as="sourcePoint" />
            <mxPoint x="390" y="480" as="targetPoint" />
          </mxGeometry>
        </mxCell>
      </root>
    </mxGraphModel>
  </diagram>
</mxfile>
